# xmcd CD database file
#
# Track frame offsets:
#	150
#	21582
#	41301
#	55192
#	72018
#	89024
#	103272
#	120624
#	141621
#	154326
#	176009
#	194060
#
# Disc length: 2656 seconds
#
# Revision: 0
# Processed by: cddbd v1.5.2PL0 Copyright (c) Steve Scherf et al.
# Submitted via: CDex 1.70beta2
#
DISCID=b70a5e0c
DTITLE=Shiels, Rosa - Rosa Shiels
DYEAR=2008
DGENRE=Blues
TTITLE0=Dead Easy
TTITLE1=Crazy
TTITLE2=Make My Own Play
TTITLE3=The Ballad of Bea Miles
TTITLE4=Never Want to Wake Up
TTITLE5=Hold Me Tight
TTITLE6=When I Fall
TTITLE7=Love Letters
TTITLE8=Gone So Long
TTITLE9=Cool Desire
TTITLE10=Lover's Lies
TTITLE11=Wayfaring Stranger
EXTD=YEAR: 2008
EXTT0=
EXTT1=
EXTT2=
EXTT3=
EXTT4=
EXTT5=
EXTT6=
EXTT7=
EXTT8=
EXTT9=
EXTT10=
EXTT11=
PLAYORDER=
